<?xml version="1.0" encoding="UTF-8" standalone="no"?>
<!-- Created with Inkscape (http://www.inkscape.org/) -->

<svg
   width="1080"
   height="1290"
   viewBox="0 0 212.61818 253.9606"
   version="1.1"
   id="svg1"
   inkscape:version="1.3 (0e150ed6c4, 2023-07-21)"
   sodipodi:docname="favicon.svg"
   inkscape:export-filename="green.svg"
   inkscape:export-xdpi="96"
   inkscape:export-ydpi="96"
   xmlns:inkscape="http://www.inkscape.org/namespaces/inkscape"
   xmlns:sodipodi="http://sodipodi.sourceforge.net/DTD/sodipodi-0.dtd"
   xmlns="http://www.w3.org/2000/svg"
   xmlns:svg="http://www.w3.org/2000/svg"
   xmlns:rdf="http://www.w3.org/1999/02/22-rdf-syntax-ns#"
   xmlns:cc="http://creativecommons.org/ns#"
   xmlns:dc="http://purl.org/dc/elements/1.1/">
  <title
     id="title40">GreenEco Tec</title>
  <sodipodi:namedview
     id="namedview1"
     pagecolor="#ffffff"
     bordercolor="#000000"
     borderopacity="0.25"
     inkscape:showpageshadow="2"
     inkscape:pageopacity="0.0"
     inkscape:pagecheckerboard="0"
     inkscape:deskcolor="#d1d1d1"
     inkscape:document-units="mm"
     showborder="false"
     shape-rendering="auto"
     inkscape:zoom="0.90867003"
     inkscape:cx="456.71144"
     inkscape:cy="224.50394"
     inkscape:window-width="1366"
     inkscape:window-height="746"
     inkscape:window-x="1358"
     inkscape:window-y="-8"
     inkscape:window-maximized="1"
     inkscape:current-layer="layer1" />
  <defs
     id="defs1">
    <linearGradient
       id="swatch9"
       inkscape:swatch="solid">
      <stop
         style="stop-color:#000000;stop-opacity:1;"
         offset="0"
         id="stop9" />
    </linearGradient>
  </defs>
  <g
     inkscape:label="Camada 1"
     inkscape:groupmode="layer"
     id="layer1">
    <g
       id="g1">
      <path
         style="fill:#ffff00;fill-opacity:1;stroke:#fcfcfc;stroke-width:0.108118px;stroke-linecap:butt;stroke-linejoin:miter;stroke-opacity:1"
         d="m 29.955317,10.969076 c 4.273037,0.287221 7.617086,1.151371 10.259041,2.572991 3.761119,-1.672687 7.209522,-2.59756 10.485947,-2.704563 C 50.489594,8.2308905 49.95536,7.7089355 47.446514,6.6942525 l -13.34405,-0.02923 c -1.088175,-0.0062 -1.849886,0.232242 -2.470219,0.558192 -1.075881,0.565307 -1.595887,1.95286 -1.676928,3.7458665 z"
         id="path11-7"
         sodipodi:nodetypes="cccccsc" />
      <path
         style="fill:#2cfacb;fill-opacity:1;stroke:#fcfcfc;stroke-width:0.108118px;stroke-linecap:butt;stroke-linejoin:miter;stroke-opacity:1"
         d="m 29.918581,12.791247 0.04814,2.27392 c 2.205641,0.289883 4.528557,0.677994 5.969494,1.405699 0.928226,-0.882006 1.54687,-1.185195 2.214501,-1.777795 -0.676251,-0.268582 -2.585245,-1.691439 -8.232135,-1.901824 z"
         id="path12-8"
         sodipodi:nodetypes="ccccc" />
      <path
         style="fill:#2cfacb;fill-opacity:1;stroke:#fcfcfc;stroke-width:0.108118px;stroke-linecap:butt;stroke-linejoin:miter;stroke-opacity:1"
         d="m 30.10288,17.008336 c 0,1.102509 0.03806,1.649276 0,3.307523 0.722201,1.200881 2.137506,2.029162 3.526341,2.170561 1.970744,0.06674 3.466438,0.02776 5.199234,0.04134 l 0.03611,-0.06201 c -0.103227,-0.379844 -2.23758,-5.050951 -8.761676,-5.457414 z"
         id="path13-5"
         sodipodi:nodetypes="ccccccc" />
      <path
         style="fill:#2cfacb;fill-opacity:1;stroke:#fcfcfc;stroke-width:0.108118px;stroke-linecap:butt;stroke-linejoin:miter;stroke-opacity:1"
         d="m 50.682866,15.011715 c -4.491835,0.0067 -7.777454,2.595553 -10.374066,4.849361 l -2.358911,-2.191234 c 3.139983,-3.005863 7.599867,-4.85968 12.676937,-4.993763 0.07849,0.702848 0.0146,1.601777 0.05604,2.335636 z"
         id="path14-3"
         sodipodi:nodetypes="ccccc" />
      <path
         style="fill:#2cfacb;fill-opacity:1;stroke:#fcfcfc;stroke-width:0.108118px;stroke-linecap:butt;stroke-linejoin:miter;stroke-opacity:1"
         d="m 41.693595,22.524812 h 5.667816 c 1.363286,-0.593718 2.650945,-1.255799 3.165805,-2.616502 l 0.01702,-2.879612 c -4.060293,0.205549 -7.017675,2.212293 -8.83362,5.437644"
         id="path15-9"
         sodipodi:nodetypes="ccccc" />
    </g>
  </g>
  <metadata
     id="metadata40">
    <rdf:RDF>
      <cc:Work
         rdf:about="">
        <dc:title>GreenEco Tec</dc:title>
        <dc:date>18/08/2023</dc:date>
        <dc:creator>
          <cc:Agent>
            <dc:title>Cristiano Ranieri</dc:title>
          </cc:Agent>
        </dc:creator>
        <dc:rights>
          <cc:Agent>
            <dc:title>crisitiano</dc:title>
          </cc:Agent>
        </dc:rights>
      </cc:Work>
    </rdf:RDF>
  </metadata>
</svg>
