<?xml version="1.0" encoding="UTF-8" standalone="no"?>
<!-- Created with Inkscape (http://www.inkscape.org/) -->

<svg
   width="1290"
   height="1080"
   viewBox="0 0 341.31249 285.74999"
   version="1.1"
   id="svg1"
   xml:space="preserve"
   inkscape:version="1.3 (0e150ed6c4, 2023-07-21)"
   sodipodi:docname="solar2.svg"
   xmlns:inkscape="http://www.inkscape.org/namespaces/inkscape"
   xmlns:sodipodi="http://sodipodi.sourceforge.net/DTD/sodipodi-0.dtd"
   xmlns:xlink="http://www.w3.org/1999/xlink"
   xmlns="http://www.w3.org/2000/svg"
   xmlns:svg="http://www.w3.org/2000/svg"><sodipodi:namedview
     id="namedview1"
     pagecolor="#ffffff"
     bordercolor="#000000"
     borderopacity="0.25"
     inkscape:showpageshadow="false"
     inkscape:pageopacity="0.0"
     inkscape:pagecheckerboard="0"
     inkscape:deskcolor="#d1d1d1"
     inkscape:document-units="mm"
     showborder="false"
     inkscape:zoom="0.5"
     inkscape:cx="730"
     inkscape:cy="466"
     inkscape:window-width="1366"
     inkscape:window-height="706"
     inkscape:window-x="-8"
     inkscape:window-y="-8"
     inkscape:window-maximized="1"
     inkscape:current-layer="layer1" /><defs
     id="defs1"><linearGradient
       id="linearGradient6"
       inkscape:collect="always"><stop
         style="stop-color:#040006;stop-opacity:1;"
         offset="0"
         id="stop6" /><stop
         style="stop-color:#190e03;stop-opacity:0.40000001;"
         offset="1"
         id="stop7" /></linearGradient><linearGradient
       id="linearGradient4"
       inkscape:collect="always"><stop
         style="stop-color:#24fafc;stop-opacity:1;"
         offset="0"
         id="stop4" /><stop
         style="stop-color:#07758e;stop-opacity:0.44590163;"
         offset="1"
         id="stop5" /></linearGradient><linearGradient
       id="c"
       x1="152.97373"
       x2="979.0371"
       y1="299.8565"
       y2="528.72035"
       gradientTransform="scale(1.2781933,0.78235428)"
       gradientUnits="userSpaceOnUse"><stop
         offset="0%"
         stop-color="#33D35E"
         id="stop1" /><stop
         offset="100%"
         stop-color="#2AB6D9"
         id="stop2" /></linearGradient><filter
       id="a"
       width="1.1742867"
       height="1.2878274"
       x="-0.087143339"
       y="-0.14237288"
       filterUnits="objectBoundingBox"><feOffset
         dy="2"
         in="SourceAlpha"
         result="shadowOffsetOuter1"
         id="feOffset2" /><feGaussianBlur
         in="shadowOffsetOuter1"
         result="shadowBlurOuter1"
         stdDeviation="38.5"
         id="feGaussianBlur2" /><feColorMatrix
         in="shadowBlurOuter1"
         values="0 0 0 0 0 0 0 0 0 0 0 0 0 0 0 0 0 0 0.0240111451 0"
         id="feColorMatrix2" /></filter><path
       id="b"
       d="M69.445 572.84L203.73 707.112a100 100 0 0070.708 29.286h70.693a100 100 0 0170.708 29.287l161.04 161.027A100 100 0 00647.584 956h388.853c44.964 0 81.415-36.45 81.415-81.414a81.414 81.414 0 00-23.848-57.57l-86.392-86.386c-12.033-12.032-12.034-31.54-.002-43.574a30.812 30.812 0 0121.788-9.025c17.017 0 30.812-13.795 30.812-30.812 0-8.172-3.246-16.01-9.025-21.788L855.85 430.11a100 100 0 00-70.708-29.287H550.7a100 100 0 01-70.708-29.287l-35.253-35.25A100 100 0 00374.032 307H138.88c-31.769 0-57.523 25.754-57.523 57.523a57.523 57.523 0 0016.85 40.676l28.761 28.76c15.886 15.884 15.887 41.64.003 57.525a40.676 40.676 0 01-28.764 11.915c-22.465 0-40.677 18.211-40.677 40.676a40.676 40.676 0 0011.915 28.764z" /><linearGradient
       id="c-9"
       x1="152.97373"
       x2="979.0371"
       y1="299.8565"
       y2="528.72035"
       gradientTransform="scale(1.2781933,0.78235428)"
       gradientUnits="userSpaceOnUse"><stop
         offset="0%"
         stop-color="#33D35E"
         id="stop1-6" /><stop
         offset="100%"
         stop-color="#2AB6D9"
         id="stop2-9" /></linearGradient><filter
       id="a-5"
       width="1.1742867"
       height="1.2878274"
       x="-0.087143339"
       y="-0.14237288"
       filterUnits="objectBoundingBox"><feOffset
         dy="2"
         in="SourceAlpha"
         result="shadowOffsetOuter1"
         id="feOffset2-0" /><feGaussianBlur
         in="shadowOffsetOuter1"
         result="shadowBlurOuter1"
         stdDeviation="38.5"
         id="feGaussianBlur2-5" /><feColorMatrix
         in="shadowBlurOuter1"
         values="0 0 0 0 0 0 0 0 0 0 0 0 0 0 0 0 0 0 0.0240111451 0"
         id="feColorMatrix2-1" /></filter><path
       id="b-7"
       d="M69.445 572.84L203.73 707.112a100 100 0 0070.708 29.286h70.693a100 100 0 0170.708 29.287l161.04 161.027A100 100 0 00647.584 956h388.853c44.964 0 81.415-36.45 81.415-81.414a81.414 81.414 0 00-23.848-57.57l-86.392-86.386c-12.033-12.032-12.034-31.54-.002-43.574a30.812 30.812 0 0121.788-9.025c17.017 0 30.812-13.795 30.812-30.812 0-8.172-3.246-16.01-9.025-21.788L855.85 430.11a100 100 0 00-70.708-29.287H550.7a100 100 0 01-70.708-29.287l-35.253-35.25A100 100 0 00374.032 307H138.88c-31.769 0-57.523 25.754-57.523 57.523a57.523 57.523 0 0016.85 40.676l28.761 28.76c15.886 15.884 15.887 41.64.003 57.525a40.676 40.676 0 01-28.764 11.915c-22.465 0-40.677 18.211-40.677 40.676a40.676 40.676 0 0011.915 28.764z" /><linearGradient
       inkscape:collect="always"
       xlink:href="#linearGradient4"
       id="linearGradient5"
       x1="60.703122"
       y1="107.7681"
       x2="341.27819"
       y2="107.7681"
       gradientUnits="userSpaceOnUse" /><linearGradient
       inkscape:collect="always"
       xlink:href="#linearGradient6"
       id="linearGradient7"
       x1="24.442939"
       y1="188.5315"
       x2="305.3879"
       y2="188.5315"
       gradientUnits="userSpaceOnUse" /></defs><g
     inkscape:label="Camada 1"
     inkscape:groupmode="layer"
     id="layer1"><g
       id="g7"
       inkscape:export-filename="bg_hero.png"
       inkscape:export-xdpi="96"
       inkscape:export-ydpi="96"
       transform="matrix(0.81833583,0,0,0.95827443,-3.0376145,-8.4475541)"><path
         style="opacity:0.622896;fill:url(#linearGradient7);fill-opacity:1;stroke:#33cc33;stroke-width:0.167;stroke-linecap:square;stroke-linejoin:bevel;stroke-dasharray:none;stroke-opacity:0.890196"
         d="m 75.030843,102.79342 c 9.03862,8.9531 26.835417,26.485 26.835417,26.485 5.9539,5.29111 13.44996,5.45 20.85776,5.90258 l 18.05401,0.10154 c 5.64186,1.11131 10.47535,3.23215 14.12215,6.83502 l 46.37749,46.04447 c 5.80397,4.65599 14.01764,4.9791 22.26122,5.2484 l 66.13592,-0.15763 c -0.72767,5.27128 -3.90368,7.24691 -8.23532,7.66696 -6.6025,0.29685 -10.66758,6.55793 -6.52024,12.9049 9.31986,9.82943 17.18198,17.47014 25.77296,26.20521 2.446,3.77883 3.91082,7.5758 4.4142,11.20714 0.34413,2.48264 0.23888,4.88788 -0.30946,7.15695 -0.33536,1.38772 -0.83643,2.72453 -1.50181,3.99696 -0.50942,0.97422 -1.11514,1.9107 -1.81651,2.80341 -3.317,4.22197 -8.77338,7.46528 -16.30063,9.0922 l -106.42872,0.15103 c -5.51007,-0.84258 -10.42725,-2.47495 -14.35123,-5.43035 -16.0003,-15.70572 -34.73851,-35.07825 -48.00089,-47.11717 -5.50106,-5.25159 -13.69467,-6.14818 -22.884037,-5.43416 l -13.94911,-0.28471 c -7.26782,-0.47918 -12.74494,-3.85469 -17.40008,-8.55971 l -35.26925,-35.28927 c -5.23385,-6.52962 -1.63352,-17.66825 9.23132,-17.53978 4.50447,-1.41749 9.14515,-3.32394 9.74741,-10.74893 -0.20435,-3.83897 -1.77098,-7.43638 -5.93537,-10.57315 -5.73965,-4.92689 -9.68233,-10.30849 -9.18594,-16.81339 0.88463,-6.31831 3.99787,-12.35042 13.00382,-13.85176 10.75822,-0.29911 20.76984,-0.10099 31.15476,-0.15149 z"
         id="path2"
         sodipodi:nodetypes="cccccccccccssssccccccccccccccc"
         inkscape:transform-center-x="-1.5875706"
         inkscape:transform-center-y="-4.2333276" /><path
         style="opacity:0.622896;fill:url(#linearGradient5);stroke:#33cc33;stroke-width:0.167;stroke-linecap:square;stroke-linejoin:bevel;stroke-dasharray:none;stroke-opacity:0.890196"
         d="m 74.9973,103.02347 27.12786,27.2214 c 3.70389,1.84391 6.99382,3.73382 13.75101,5.23848 l 25.06989,0.28064 c 5.48982,2.01664 10.95088,4.06923 15.06064,7.81095 l 43.12394,43.3578 c 3.81349,3.77015 9.11967,6.04763 16.1079,6.64304 l 106.5287,-0.0949 c 16.73338,-1.93737 25.168,-19.6642 15.06064,-34.42432 l -25.94247,-26.50027 c -1.71687,-3.56143 -1.8492,-11.59538 7.27604,-12.43541 6.18442,-0.61138 10.177,-6.58707 6.41615,-13.03073 L 271.33021,54.107292 c -4.24645,-4.350154 -10.08735,-7.068776 -18.12396,-7.540625 l -64.95521,0.132291 C 175.40161,44.445087 168.91156,35.831844 161.46198,28.178126 158.7412,24.938861 153.36421,23.217431 147.17448,21.960421 H 81.62396 c -7.94435,1.44836 -13.62006,5.165359 -14.35365,13.824476 -0.88661,5.391344 2.29214,10.008334 6.60446,14.409408 l 6.24408,6.267469 c 6.20533,10.248846 -1.87671,16.88135 -7.78838,17.390049 -8.37168,0.222849 -10.19583,4.917185 -11.45837,9.995056 -0.51739,3.540374 1.39196,6.219647 3.56638,8.804859 z"
         id="path4"
         sodipodi:nodetypes="ccccccccccccccccccccccccc" /></g></g></svg>
