<?xml version="1.0" encoding="UTF-8" standalone="no"?>
<svg
   width="75"
   height="75.000008"
   viewBox="0 0 75 75.000008"
   fill="none"
   version="1.1"
   id="svg1"
   sodipodi:docname="whatssappGreen.svg"
   xmlns:inkscape="http://www.inkscape.org/namespaces/inkscape"
   xmlns:sodipodi="http://sodipodi.sourceforge.net/DTD/sodipodi-0.dtd"
   xmlns="http://www.w3.org/2000/svg"
   xmlns:svg="http://www.w3.org/2000/svg">
  <defs
     id="defs1" />
  <sodipodi:namedview
     id="namedview1"
     pagecolor="#ffffff"
     bordercolor="#000000"
     borderopacity="0.25"
     inkscape:showpageshadow="2"
     inkscape:pageopacity="0.0"
     inkscape:pagecheckerboard="0"
     inkscape:deskcolor="#d1d1d1" />
  <g
     id="g4"
     transform="translate(-412.31274,-83.97097)">
    <g
       id="g2"
       transform="matrix(0.68181818,0,0,0.68181818,262.08476,52.572015)">
      <circle
         cx="275.33438"
         cy="101.0518"
         fill="#00a884"
         id="circle1"
         r="55" />
    </g>
    <g
       id="g3"
       transform="matrix(0.41999999,0,0,0.41999999,407.75284,90.046142)">
      <g
         id="g1"
         transform="matrix(1.7520837,0,0,1.7520837,5.3774487,-21.480301)">
        <path
           d="m 74.6032,34.3705 c -5.338,-5.3508 -12.4469,-8.2937 -20.0017,-8.2937 -15.5937,0 -28.2827,12.689 -28.2827,28.2827 0,4.9813 1.2995,9.8479 3.7711,14.1413 l -4.0131,14.6509 14.9949,-3.9366 c 4.1277,2.255 8.7778,3.4398 13.5171,3.4398 h 0.0127 c 15.581,0 28.5502,-12.689 28.5502,-28.2827 0,-7.5548 -3.2104,-14.6509 -8.5485,-20.0017 z M 54.6015,77.8901 c -4.2296,0 -8.3701,-1.1338 -11.9755,-3.2741 l -0.8536,-0.5096 -8.8925,2.3314 2.3696,-8.6759 -0.5605,-0.8918 c -2.3569,-3.7456 -3.5927,-8.0644 -3.5927,-12.5106 0,-12.9566 10.5487,-23.5052 23.518,-23.5052 6.2808,0 12.1793,2.446 16.6128,6.8923 4.4335,4.4462 7.1599,10.3448 7.1472,16.6256 0,12.9693 -10.8163,23.5179 -23.7728,23.5179 z M 67.4943,60.2835 c -0.7007,-0.3567 -4.1787,-2.0638 -4.8284,-2.2932 -0.6497,-0.242 -1.1211,-0.3567 -1.5925,0.3568 -0.4714,0.7134 -1.8218,2.2932 -2.2422,2.7773 -0.4077,0.4713 -0.8281,0.535 -1.5288,0.1783 -4.1532,-2.0766 -6.8796,-3.7073 -9.6187,-8.4083 -0.7261,-1.2485 0.7262,-1.1594 2.0766,-3.8602 0.2294,-0.4714 0.1147,-0.8791 -0.0637,-1.2358 -0.1783,-0.3567 -1.5925,-3.8347 -2.1785,-5.2489 -0.5733,-1.3759 -1.1593,-1.1848 -1.5925,-1.2103 -0.4077,-0.0254 -0.879,-0.0254 -1.3504,-0.0254 -0.4714,0 -1.2358,0.1783 -1.8855,0.879 -0.6498,0.7134 -2.4716,2.4206 -2.4716,5.8986 0,3.478 2.5353,6.8414 2.8792,7.3127 0.3568,0.4714 4.9814,7.6058 12.0775,10.6761 4.4845,1.9365 6.2426,2.1021 8.4848,1.7709 1.3632,-0.2039 4.1787,-1.7072 4.7648,-3.3634 0.586,-1.6562 0.586,-3.0703 0.4076,-3.3633 -0.1656,-0.3185 -0.637,-0.4969 -1.3377,-0.8409 z"
           fill="#ffffff"
           id="path1" />
      </g>
    </g>
  </g>
</svg>
