<?xml version="1.0" encoding="UTF-8" standalone="no"?>
<svg
   viewBox="0 0 184400.31 204960.64"
   version="1.1"
   id="svg1"
   sodipodi:docname="whatsapp_green.svg"
   inkscape:version="1.3 (0e150ed6c4, 2023-07-21)"
   width="184400.31"
   height="204960.64"
   xmlns:inkscape="http://www.inkscape.org/namespaces/inkscape"
   xmlns:sodipodi="http://sodipodi.sourceforge.net/DTD/sodipodi-0.dtd"
   xmlns="http://www.w3.org/2000/svg"
   xmlns:svg="http://www.w3.org/2000/svg">
  <defs
     id="defs1" />
  <sodipodi:namedview
     id="namedview1"
     pagecolor="#ffffff"
     bordercolor="#000000"
     borderopacity="0.25"
     inkscape:showpageshadow="2"
     inkscape:pageopacity="0.0"
     inkscape:pagecheckerboard="0"
     inkscape:deskcolor="#d1d1d1"
     inkscape:zoom="0.796875"
     inkscape:cx="224"
     inkscape:cy="256"
     inkscape:window-width="1366"
     inkscape:window-height="706"
     inkscape:window-x="-8"
     inkscape:window-y="-8"
     inkscape:window-maximized="1"
     inkscape:current-layer="svg1"
     inkscape:export-bgcolor="#ffffffff" />
  <!--! Font Awesome Pro 6.4.2 by @fontawesome - https://fontawesome.com License - https://fontawesome.com/license (Commercial License) Copyright 2023 Fonticons, Inc. -->
  <path
     d="m -6381.3352,-32966.456 c -38.4963,-37.529 -89.7636,-58.17 -144.2465,-58.17 -112.4571,0 -203.9664,88.998 -203.9664,198.369 0,34.938 9.3715,69.072 27.1956,99.185 l -28.9412,102.759 108.1389,-27.611 c 29.7681,15.816 63.3031,24.126 97.4813,24.126 h 0.092 c 112.3652,0 205.8958,-88.998 205.8958,-198.369 0,-52.988 -23.153,-102.759 -61.6493,-140.289 z m -144.2465,305.239 c -30.5031,0 -60.363,-7.952 -86.3641,-22.964 l -6.1558,-3.574 -64.1299,16.352 17.089,-60.851 -4.0425,-6.255 c -16.9972,-26.271 -25.9093,-56.563 -25.9093,-87.748 0,-90.874 76.074,-164.861 169.6045,-164.861 45.2952,0 87.8342,17.156 119.8073,48.341 31.9731,31.186 51.6347,72.557 51.5428,116.61 0,90.964 -78.0033,164.95 -171.442,164.95 z m 92.9793,-123.489 c -5.0532,-2.502 -30.1356,-14.476 -34.8213,-16.084 -4.6857,-1.698 -8.0851,-2.502 -11.4846,2.502 -3.3994,5.004 -13.1384,16.084 -16.1703,19.479 -2.94,3.306 -5.972,3.753 -11.0252,1.251 -29.9518,-14.565 -49.6134,-26.002 -69.3669,-58.975 -5.237,-8.756 5.2369,-8.131 14.9759,-27.074 1.6537,-3.307 0.8269,-6.166 -0.4594,-8.668 -1.2863,-2.502 -11.4846,-26.896 -15.7109,-36.814 -4.1345,-9.651 -8.3608,-8.311 -11.4846,-8.489 -2.9401,-0.179 -6.3395,-0.179 -9.739,-0.179 -3.3994,0 -8.912,1.251 -13.5977,6.166 -4.6857,5.003 -17.8241,16.977 -17.8241,41.371 0,24.394 18.2835,47.984 20.7641,51.29 2.5726,3.307 35.9238,53.346 87.0992,74.881 32.3406,13.582 45.0196,14.743 61.1899,12.42 9.8308,-1.43 30.1356,-11.974 34.3619,-23.59 4.2263,-11.616 4.2263,-21.535 2.9401,-23.59 -1.1944,-2.234 -4.5939,-3.485 -9.6471,-5.897 z"
     id="path1"
     style="fill:#009100;stroke-width:0.906075"
     inkscape:export-filename="path1.png"
     inkscape:export-xdpi="96"
     inkscape:export-ydpi="96" />
</svg>
